<svg xmlns="http://www.w3.org/2000/svg" width="1024" height="1024" viewBox="0 0 1024 1024" role="img" aria-labelledby="title desc">
  <title id="title">Nook app icon</title>
  <desc id="desc">A charcoal note and warm amber folded corner on an ivory macOS icon. All artwork is editable vector geometry.</desc>
  <rect x="64" y="72" width="896" height="888" rx="200" fill="#dedbd1"/>
  <rect x="64" y="64" width="896" height="888" rx="200" fill="#f3f0e7"/>
  <g transform="translate(176 176) scale(28)">
    <path fill="#222522" d="M7 2h10a5 5 0 0 1 5 5v3h-6a6 6 0 0 0-6 6v6H7a5 5 0 0 1-5-5V7a5 5 0 0 1 5-5Z"/>
    <path fill="#dea04e" d="M13 22v-6a3 3 0 0 1 3-3h6a9 9 0 0 1-9 9Z"/>
  </g>
</svg>
